<svg width="13" height="9" viewBox="0 0 13 9" fill="none" xmlns="http://www.w3.org/2000/svg">
<path d="M0.0315027 5.30313C0.0525446 4.99136 0.0951042 4.65128 0.157754 4.29215C0.220998 3.93033 0.30243 3.5883 0.399912 3.27568C0.500604 2.95256 0.637553 2.63347 0.806838 2.32769C0.982543 2.01031 1.18892 1.73394 1.4205 1.50652C1.66266 1.26861 1.95914 1.07733 2.30199 0.937804C2.64365 0.799011 3.02229 0.728699 3.42731 0.728699C3.58637 0.728699 3.7402 0.795715 4.03728 0.994322C4.22012 1.11676 4.43398 1.25836 4.6727 1.41497C4.87681 1.54852 5.15333 1.67364 5.49487 1.78692C5.82809 1.89764 6.16642 1.95379 6.50036 1.95379C6.83429 1.95379 7.1725 1.89764 7.50608 1.78692C7.84727 1.67376 8.12378 1.54864 8.32766 1.41509C8.56411 1.25994 8.7781 1.11834 8.96367 0.9942C9.26039 0.795593 9.41434 0.728577 9.5734 0.728577C9.97855 0.728577 10.3571 0.799011 10.6986 0.937926C11.0412 1.07721 11.3378 1.26849 11.5802 1.50665C11.8117 1.73418 12.0182 2.01043 12.1936 2.32769C12.3628 2.63347 12.4998 2.95244 12.6006 3.2758C12.6979 3.58842 12.7794 3.93033 12.8426 4.29215C12.9053 4.65079 12.9478 4.991 12.9689 5.30349C12.9895 5.60964 13 5.92739 13 6.24831C13 7.08351 12.7414 7.75965 12.2316 8.2583C11.728 8.75037 11.0617 9 10.2514 9H2.74862C1.93834 9 1.27225 8.75049 0.768559 8.2583C0.258564 7.76002 0 7.08375 0 6.24819C0.000119209 5.9258 0.0106983 5.60781 0.0315027 5.30313Z" fill="#9EBBBD"/>
</svg>
